<svg version="1.1" viewBox="0 0 16 16" xmlns="http://www.w3.org/2000/svg"><path d="m8 0.0010049c-4.4158 0-8 3.5822-8 7.998 0 4.4159 3.5842 8 8 8.0001 4.4158-1.04e-4 8-3.5842 8-8.0001 0-4.4158-3.5842-7.998-8-7.998zm0 0.41407c1.3269 0 2.5716 0.3415 3.6562 0.93944v12.381l-7.1933-12.443c1.0565-0.55819 2.2583-0.87696 3.5371-0.87696zm-4.2402 1.293v12.582c-2.0186-1.3623-3.3438-3.6709-3.3438-6.2911 0-2.6202 1.3252-4.9287 3.3438-6.291zm8.4805 0c2.0186 1.3623 3.3438 3.6708 3.3438 6.291 0 2.6203-1.3252 4.9288-3.3438 6.2911zm-7.9062 0.51757 6.916 11.963h-5.9902v0.57608h6.1562c-1.0275 0.51977-2.1852 0.81837-3.416 0.81837-1.3309 0-2.5791-0.34388-3.666-0.94524z"/></svg>
