<svg version="1.1" viewBox="0 0 1000 1000" xmlns="http://www.w3.org/2000/svg"><path d="m362.95 809.48h299.57l-345.8-598.2v626.98h-28.778v-676.51h33.495l361.37 625.09v-625.09h29.249v676.51h-349.11z" fill="#ccc"/><path d="m500 96.408c-222.73 0-403.59 180.86-403.59 403.59 0 107.03 42.525 209.7 118.21 285.38 75.684 75.684 178.35 118.21 285.38 118.21s209.7-42.525 285.38-118.21c75.684-75.684 118.21-178.35 118.21-285.38s-42.525-209.7-118.21-285.38c-75.684-75.684-178.35-118.21-285.38-118.21zm0 28c99.619 0 195.14 39.567 265.58 110.01 70.441 70.441 110.01 165.97 110.01 265.58s-39.567 195.14-110.01 265.58c-70.441 70.441-165.97 110.01-265.58 110.01s-195.14-39.567-265.58-110.01c-70.441-70.441-110.01-165.97-110.01-265.58 0-207.6 167.99-375.59 375.59-375.59z" color="#000000" color-rendering="auto" dominant-baseline="auto" fill="#ccc" image-rendering="auto" shape-rendering="auto" solid-color="#000000" style="font-feature-settings:normal;font-variant-alternates:normal;font-variant-caps:normal;font-variant-ligatures:normal;font-variant-numeric:normal;font-variant-position:normal;isolation:auto;mix-blend-mode:normal;shape-padding:0;text-decoration-color:#000000;text-decoration-line:none;text-decoration-style:solid;text-indent:0;text-orientation:mixed;text-transform:none;white-space:normal"/></svg>
